# Blender 4.4.3
# www.blender.org
mtllib toggle_item.mtl
o item
v 0.437500 0.125000 0.562500
v 0.375000 0.875000 0.625000
v 0.437500 0.125000 0.437500
v 0.375000 0.875000 0.375000
v 0.562500 0.125000 0.562500
v 0.625000 0.875000 0.625000
v 0.562500 0.125000 0.437500
v 0.625000 0.875000 0.375000
v 0.250000 0.000000 0.750000
v 0.250000 0.187500 0.750000
v 0.250000 0.000000 0.250000
v 0.250000 0.187500 0.250000
v 0.750000 0.000000 0.750000
v 0.750000 0.187500 0.750000
v 0.750000 0.000000 0.250000
v 0.750000 0.187500 0.250000
vn -0.9965 -0.0830 -0.0000
vn -0.0000 -0.0830 -0.9965
vn 0.9965 -0.0830 -0.0000
vn -0.0000 -0.0830 0.9965
vn -0.0000 -1.0000 -0.0000
vn -0.0000 1.0000 -0.0000
vn -1.0000 -0.0000 -0.0000
vn -0.0000 -0.0000 -1.0000
vn 1.0000 -0.0000 -0.0000
vn -0.0000 -0.0000 1.0000
vt 1.000000 0.562500
vt 1.000000 0.812500
vt 0.750000 0.812500
vt 0.750000 0.562500
vt 0.500000 0.500000
vt 0.625000 0.500000
vt 0.625000 0.625000
vt 0.500000 0.625000
vt 0.625000 0.875000
vt 0.750000 0.875000
vt 0.750000 1.000000
vt 0.625000 1.000000
vt 0.875000 0.875000
vt 1.000000 0.875000
vt 1.000000 1.000000
vt 0.875000 1.000000
s 0
usemtl mat.001
f 1/1/1 2/2/1 4/3/1 3/4/1
f 3/1/2 4/2/2 8/3/2 7/4/2
f 7/1/3 8/2/3 6/3/3 5/4/3
f 5/1/4 6/2/4 2/3/4 1/4/4
f 3/5/5 7/6/5 5/7/5 1/8/5
f 8/9/6 4/10/6 2/11/6 6/12/6
f 9/13/7 10/14/7 12/15/7 11/16/7
f 11/13/8 12/14/8 16/15/8 15/16/8
f 15/13/9 16/14/9 14/15/9 13/16/9
f 13/13/10 14/14/10 10/15/10 9/16/10
f 11/13/5 15/14/5 13/15/5 9/16/5
f 16/13/6 12/14/6 10/15/6 14/16/6
