# Blender 4.4.3
# www.blender.org
mtllib knob_1.mtl
o head
v 0.013980 0.006250 -0.033750
v 0.015533 0.050000 -0.037500
v 0.033750 0.006250 -0.013980
v 0.037500 0.050000 -0.015533
v 0.033750 0.006250 0.013980
v 0.037500 0.050000 0.015533
v 0.013980 0.006250 0.033750
v 0.015533 0.050000 0.037500
v -0.013980 0.006250 0.033750
v -0.015533 0.050000 0.037500
v -0.033750 0.006250 0.013980
v -0.037500 0.050000 0.015533
v -0.033750 0.006250 -0.013980
v -0.037500 0.050000 -0.015533
v -0.013980 0.006250 -0.033750
v -0.015533 0.050000 -0.037500
vn 0.7045 -0.0854 -0.7045
vn 0.9963 -0.0854 -0.0000
vn 0.7045 -0.0854 0.7045
vn -0.0000 -0.0854 0.9963
vn -0.7045 -0.0854 0.7045
vn -0.9963 -0.0854 -0.0000
vn -0.0000 -1.0000 -0.0000
vn -0.7045 -0.0854 -0.7045
vn -0.0000 -0.0854 -0.9963
vn -0.0000 1.0000 -0.0000
vt 0.250000 0.500000
vt 0.250000 1.000000
vt 0.000000 1.000000
vt 0.000000 0.500000
vt 0.625000 0.500000
vt 0.625000 1.000000
vt 0.375000 1.000000
vt 0.375000 0.500000
vt 0.353553 0.500000
vt 0.146447 0.500000
vt 0.146447 -0.000000
vt 0.353553 0.000000
vt 0.000000 0.353553
vt 0.000000 0.146447
vt 0.500000 0.353553
vt 0.500000 0.146447
vt 0.646447 0.000000
vt 0.646447 0.500000
vt 0.853553 0.000000
vt 0.853553 0.500000
vt 1.000000 0.146447
vt 1.000000 0.353553
s 0
usemtl mat
f 1/1/1 2/2/1 4/3/1 3/4/1
f 3/1/2 4/2/2 6/3/2 5/4/2
f 5/1/3 6/2/3 8/3/3 7/4/3
f 7/5/4 8/6/4 10/7/4 9/8/4
f 9/1/5 10/2/5 12/3/5 11/4/5
f 11/1/6 12/2/6 14/3/6 13/4/6
f 3/9/7 5/10/7 11/11/7 13/12/7
f 13/1/8 14/2/8 16/3/8 15/4/8
f 15/1/9 16/2/9 2/3/9 1/4/9
f 5/10/7 7/13/7 9/14/7 11/11/7
f 1/15/7 3/9/7 13/12/7 15/16/7
f 8/16/10 6/17/10 12/18/10 10/15/10
f 6/17/10 4/19/10 14/20/10 12/18/10
f 4/19/10 2/21/10 16/22/10 14/20/10
