# Blender 4.4.3
# www.blender.org
mtllib knob_1_base.mtl
o base
v 0.023300 0.000000 -0.056250
v 0.023300 0.012500 -0.056250
v 0.056250 0.000000 -0.023300
v 0.056250 0.012500 -0.023300
v 0.056250 0.000000 0.023300
v 0.056250 0.012500 0.023300
v 0.023300 0.000000 0.056250
v 0.023300 0.012500 0.056250
v -0.023300 0.000000 0.056250
v -0.023300 0.012500 0.056250
v -0.056250 0.000000 0.023300
v -0.056250 0.012500 0.023300
v -0.056250 0.000000 -0.023300
v -0.056250 0.012500 -0.023300
v -0.023300 0.000000 -0.056250
v -0.023300 0.012500 -0.056250
vn 0.7071 -0.0000 -0.7071
vn 1.0000 -0.0000 -0.0000
vn 0.7071 -0.0000 0.7071
vn -0.0000 -0.0000 1.0000
vn -0.7071 -0.0000 0.7071
vn -1.0000 -0.0000 -0.0000
vn -0.7071 -0.0000 -0.7071
vn -0.0000 -0.0000 -1.0000
vn -0.0000 1.0000 -0.0000
vn -0.0000 -1.0000 -0.0000
vt 0.328568 0.025428
vt 0.407135 0.025428
vt 0.407135 0.255822
vt 0.328567 0.255822
vt 0.407135 0.462928
vt 0.328567 0.462928
vt 0.250000 0.025428
vt 0.328567 0.025428
vt 0.250000 0.255822
vt 0.328567 0.462928
vt 0.250000 0.462928
vt 0.171433 0.025428
vt 0.250000 0.025428
vt 0.171433 0.255822
vt 0.250000 0.462928
vt 0.171433 0.462928
vt 0.092865 0.025428
vt 0.171433 0.025428
vt 0.171432 0.255822
vt 0.092865 0.255822
vt 0.171432 0.462928
vt 0.092865 0.462928
vt 0.146447 -0.000000
vt 0.353553 0.000000
vt 0.353553 0.500000
vt 0.146447 0.500000
vt 0.000000 0.146447
vt -0.000000 0.353553
vt 0.500000 0.146447
vt 0.500000 0.353553
vt 0.500000 0.353553
vt 0.353553 0.500000
vt 0.353553 0.000000
vt 0.500000 0.146447
vt 0.146447 0.500000
vt 0.146447 0.000000
vt -0.000000 0.353553
vt 0.000000 0.146447
s 0
usemtl mat
f 1/1/1 2/2/1 4/3/1 3/4/1
f 3/4/2 4/3/2 6/5/2 5/6/2
f 5/7/3 6/8/3 8/4/3 7/9/3
f 7/9/4 8/4/4 10/10/4 9/11/4
f 9/12/5 10/13/5 12/9/5 11/14/5
f 11/14/6 12/9/6 14/15/6 13/16/6
f 13/17/7 14/18/7 16/19/7 15/20/7
f 15/20/8 16/19/8 2/21/8 1/22/8
f 6/23/9 4/24/9 14/25/9 12/26/9
f 8/27/9 6/23/9 12/26/9 10/28/9
f 4/24/9 2/29/9 16/30/9 14/25/9
f 1/31/10 3/32/10 13/33/10 15/34/10
f 3/32/10 5/35/10 11/36/10 13/33/10
f 5/35/10 7/37/10 9/38/10 11/36/10
