# Blender 4.4.3
# www.blender.org
mtllib knob_1_item.mtl
o item
v 0.655330 0.037500 0.125000
v 0.655330 0.137500 0.125000
v 0.875000 0.037500 0.344670
v 0.875000 0.137500 0.344670
v 0.875000 0.037500 0.655330
v 0.875000 0.137500 0.655330
v 0.655330 0.037500 0.875000
v 0.655330 0.137500 0.875000
v 0.344670 0.037500 0.875000
v 0.344670 0.137500 0.875000
v 0.125000 0.037500 0.655330
v 0.125000 0.137500 0.655330
v 0.125000 0.037500 0.344670
v 0.125000 0.137500 0.344670
v 0.344670 0.037500 0.125000
v 0.344670 0.137500 0.125000
v 0.611838 0.087500 0.230000
v 0.624264 0.437500 0.200000
v 0.770000 0.087500 0.388162
v 0.800000 0.437500 0.375736
v 0.770000 0.087500 0.611838
v 0.800000 0.437500 0.624264
v 0.611838 0.087500 0.770000
v 0.624264 0.437500 0.800000
v 0.388162 0.087500 0.770000
v 0.375736 0.437500 0.800000
v 0.230000 0.087500 0.611838
v 0.200000 0.437500 0.624264
v 0.230000 0.087500 0.388162
v 0.200000 0.437500 0.375736
v 0.388162 0.087500 0.230000
v 0.375736 0.437500 0.200000
vn 0.7071 -0.0000 -0.7071
vn 1.0000 -0.0000 -0.0000
vn 0.7071 -0.0000 0.7071
vn -0.0000 -0.0000 1.0000
vn -0.7071 -0.0000 0.7071
vn -1.0000 -0.0000 -0.0000
vn -0.7071 -0.0000 -0.7071
vn -0.0000 -0.0000 -1.0000
vn -0.0000 1.0000 -0.0000
vn -0.0000 -1.0000 -0.0000
vn 0.7045 -0.0854 -0.7045
vn 0.9963 -0.0854 -0.0000
vn 0.7045 -0.0854 0.7045
vn -0.0000 -0.0854 0.9963
vn -0.7045 -0.0854 0.7045
vn -0.9963 -0.0854 -0.0000
vn -0.7045 -0.0854 -0.7045
vn -0.0000 -0.0854 -0.9963
vt 0.328568 0.025428
vt 0.407135 0.025428
vt 0.407135 0.255822
vt 0.328567 0.255822
vt 0.407135 0.462928
vt 0.328567 0.462928
vt 0.250000 0.025428
vt 0.328567 0.025428
vt 0.250000 0.255822
vt 0.328567 0.462928
vt 0.250000 0.462928
vt 0.171433 0.025428
vt 0.250000 0.025428
vt 0.171433 0.255822
vt 0.250000 0.462928
vt 0.171433 0.462928
vt 0.092865 0.025428
vt 0.171433 0.025428
vt 0.171432 0.255822
vt 0.092865 0.255822
vt 0.171432 0.462928
vt 0.092865 0.462928
vt 0.146447 -0.000000
vt 0.353553 0.000000
vt 0.353553 0.500000
vt 0.146447 0.500000
vt 0.000000 0.146447
vt -0.000000 0.353553
vt 0.500000 0.146447
vt 0.500000 0.353553
vt 0.500000 0.353553
vt 0.353553 0.500000
vt 0.353553 0.000000
vt 0.500000 0.146447
vt 0.146447 0.500000
vt 0.146447 0.000000
vt -0.000000 0.353553
vt 0.000000 0.146447
vt 0.218750 0.500000
vt 0.218750 1.000000
vt 0.093750 1.000000
vt 0.093750 0.500000
vt 0.146447 -0.000000
vt 0.353553 0.000000
vt 0.000000 0.353553
vt 0.000000 0.146447
vt 0.646447 0.000000
vt 0.646447 0.500000
vt 0.853553 0.000000
vt 0.853553 0.500000
vt 1.000000 0.146447
vt 1.000000 0.353553
s 0
usemtl mat.001
f 1/1/1 2/2/1 4/3/1 3/4/1
f 3/4/2 4/3/2 6/5/2 5/6/2
f 5/7/3 6/8/3 8/4/3 7/9/3
f 7/9/4 8/4/4 10/10/4 9/11/4
f 9/12/5 10/13/5 12/9/5 11/14/5
f 11/14/6 12/9/6 14/15/6 13/16/6
f 13/17/7 14/18/7 16/19/7 15/20/7
f 15/20/8 16/19/8 2/21/8 1/22/8
f 6/23/9 4/24/9 14/25/9 12/26/9
f 8/27/9 6/23/9 12/26/9 10/28/9
f 4/24/9 2/29/9 16/30/9 14/25/9
f 1/31/10 3/32/10 13/33/10 15/34/10
f 3/32/10 5/35/10 11/36/10 13/33/10
f 5/35/10 7/37/10 9/38/10 11/36/10
f 17/39/11 18/40/11 20/41/11 19/42/11
f 19/39/12 20/40/12 22/41/12 21/42/12
f 21/39/13 22/40/13 24/41/13 23/42/13
f 23/39/14 24/40/14 26/41/14 25/42/14
f 25/39/15 26/40/15 28/41/15 27/42/15
f 27/39/16 28/40/16 30/41/16 29/42/16
f 19/32/10 21/35/10 27/43/10 29/44/10
f 29/39/17 30/40/17 32/41/17 31/42/17
f 31/39/18 32/40/18 18/41/18 17/42/18
f 21/35/10 23/45/10 25/46/10 27/43/10
f 17/31/10 19/32/10 29/44/10 31/34/10
f 24/34/9 22/47/9 28/48/9 26/31/9
f 22/47/9 20/49/9 30/50/9 28/48/9
f 20/49/9 18/51/9 32/52/9 30/50/9
